<?xml version="1.0" encoding="utf-8"?>
<!-- Generator: Adobe Illustrator 22.1.0, SVG Export Plug-In . SVG Version: 6.00 Build 0)  -->
<svg version="1.1" id="레이어_1" xmlns="http://www.w3.org/2000/svg" xmlns:xlink="http://www.w3.org/1999/xlink" x="0px"
	 y="0px" viewBox="0 0 512 512" style="enable-background:new 0 0 512 512;" xml:space="preserve">
<style type="text/css">
	.st0{fill:url(#SVGID_1_);}
	.st1{fill:#FFE11C;}
</style>
<g>
	<g>
		<linearGradient id="SVGID_1_" gradientUnits="userSpaceOnUse" x1="0.4479" y1="-0.1108" x2="512.4479" y2="511.8892">
			<stop  offset="0" style="stop-color:#5058CB"/>
			<stop  offset="0.5" style="stop-color:#551DCB"/>
			<stop  offset="1" style="stop-color:#7D1DCB"/>
		</linearGradient>
		<rect x="0.4" y="-0.1" class="st0" width="512" height="512"/>
	</g>
	<g id="JskLhw_26_">
		<g>
			<path class="st1" d="M137.5,237.1c10.8,66.3,63.6,86.2,88.1,93c24.5,6.8,28.7-7.6,20.8-20.3c-32.8-65-43.7-116,1.5-207.5
				c9.6-12,11.4-32.5-7.3-37.9c-6.5-1.8-26.4-7-25.7,14c0.3,8.3,2.3,13.3-10.2,25.6C161.4,145.9,132.3,183.4,137.5,237.1z"/>
			<path class="st1" d="M416.8,359.7c17.3-20.2,9.9-36.5-11.7-27.4c-47,22.5-95.6,30.4-135.6,28.3c-65-3.6-108.3-24.7-156-64.8
				c-16.4-12.2-31.7,0.6-25.1,15.8c5.2,10.6,8.5,8.1,14.3,19.5c5.2,10.1,8.1,18.1,18,32.8c16.7,24.9,37.8,43,62.2,56.1
				C238.1,445.5,337.7,451.2,416.8,359.7z"/>
			<path class="st1" d="M268.9,166.2c-6.1-11.8-18.9-6.1-20.9,8.5c-9,63.4,17.3,140,57.3,153.3c34.2,11.4,60.9-2.4,68.9-9.6
				c9.8-8.8,4.2-17-3-21.5C316.9,261.3,290.2,207.7,268.9,166.2z"/>
		</g>
	</g>
</g>
</svg>
